<svg xmlns="http://www.w3.org/2000/svg" xmlns:xlink="http://www.w3.org/1999/xlink" viewBox="0 0 1440 780"  width="1440" height="780"><defs><path id="a" d="M0 0h1440v780H0z"/></defs><clipPath id="b"><use xlink:href="#a" overflow="visible"/></clipPath><g clip-path="url(#b)"><linearGradient id="c" gradientUnits="userSpaceOnUse" x1="0" y1="204" x2="1440" y2="204"><stop offset="0" stop-color="#ff1b51"/><stop offset="1" stop-color="#e1184c"/></linearGradient><path d="M0-372V780h576l288-288h288l288-288v-576H0z" fill="url(#c)"/><linearGradient id="d" gradientUnits="userSpaceOnUse" x1="-288.587" y1="297" x2="287.78" y2="297" gradientTransform="matrix(1 0 0 -1 0 933)"><stop offset="0" stop-color="#ff1b51"/><stop offset="1" stop-color="#e1184c"/></linearGradient><path d="M288 780L0 492v288h288z" fill="url(#d)"/><linearGradient id="e" gradientUnits="userSpaceOnUse" x1="1151.392" y1="873" x2="1727.76" y2="873" gradientTransform="matrix(1 0 0 -1 0 933)"><stop offset="0" stop-color="#ff1b51"/><stop offset="1" stop-color="#e1184c"/></linearGradient><path d="M1152-84l288 288V-84h-288z" fill="url(#e)"/><linearGradient id="f" gradientUnits="userSpaceOnUse" x1="285.196" y1="1017" x2="860.029" y2="1017" gradientTransform="matrix(1 0 0 -1 0 933)"><stop offset="0" stop-color="#ff1b51"/><stop offset="1" stop-color="#e1184c"/></linearGradient><path d="M288-84l288-288L864-84 576 204 288-84z" fill="url(#f)"/><linearGradient id="g" gradientUnits="userSpaceOnUse" x1="576" y1="1161" x2="1152" y2="1161" gradientTransform="matrix(1 0 0 -1 0 933)"><stop offset="0" stop-color="#ff1b51"/><stop offset="1" stop-color="#e1184c"/></linearGradient><path d="M864-372H576L864-84h288L864-372z" fill="url(#g)"/><linearGradient id="h" gradientUnits="userSpaceOnUse" x1="576" y1="873" x2="1152" y2="873" gradientTransform="matrix(1 0 0 -1 0 933)"><stop offset="0" stop-color="#e1184c"/><stop offset="1" stop-color="#ff1b51"/></linearGradient><path d="M864 204H576L864-84h288L864 204z" fill="url(#h)"/><linearGradient id="i" gradientUnits="userSpaceOnUse" x1="0" y1="1161" x2="576" y2="1161" gradientTransform="matrix(1 0 0 -1 0 933)"><stop offset="0" stop-color="#e1184c"/><stop offset="1" stop-color="#ff1b51"/></linearGradient><path d="M288-84H0l288-288h288L288-84z" fill="url(#i)"/><linearGradient id="j" gradientUnits="userSpaceOnUse" x1="0" y1="873" x2="576" y2="873" gradientTransform="matrix(1 0 0 -1 0 933)"><stop offset="0" stop-color="#ff1b51"/><stop offset="1" stop-color="#e1184c"/></linearGradient><path d="M288-84H0l288 288h288L288-84z" fill="url(#j)"/><linearGradient id="k" gradientUnits="userSpaceOnUse" x1="863.392" y1="1161" x2="1439.76" y2="1161" gradientTransform="matrix(1 0 0 -1 0 933)"><stop offset="0" stop-color="#ff1b51"/><stop offset="1" stop-color="#e1184c"/></linearGradient><path d="M864-372l288 288v-288H864z" fill="url(#k)"/><linearGradient id="l" gradientUnits="userSpaceOnUse" x1="-290.804" y1="729" x2="284.029" y2="729" gradientTransform="matrix(1 0 0 -1 0 933)"><stop offset="0" stop-color="#ff1b51"/><stop offset="1" stop-color="#e1184c"/></linearGradient><path d="M-288 204L0-84l288 288L0 492l-288-288z" fill="url(#l)"/><linearGradient id="m" gradientUnits="userSpaceOnUse" x1="-288.58" y1="1161" x2="287.786" y2="1161" gradientTransform="matrix(1 0 0 -1 0 933)"><stop offset="0" stop-color="#ff1b51"/><stop offset="1" stop-color="#e1184c"/></linearGradient><path d="M0-372v288l288-288H0z" fill="url(#m)"/><linearGradient id="n" gradientUnits="userSpaceOnUse" x1="1152" y1="1161" x2="1728" y2="1161" gradientTransform="matrix(1 0 0 -1 0 933)"><stop offset="0" stop-color="#ff1b51"/><stop offset="1" stop-color="#e1184c"/></linearGradient><path d="M1440-84h-288l288-288v288z" fill="url(#n)"/><linearGradient id="o" gradientUnits="userSpaceOnUse" x1="861.196" y1="729" x2="1436.029" y2="729" gradientTransform="matrix(1 0 0 -1 0 933)"><stop offset="0" stop-color="#ff1b51"/><stop offset="1" stop-color="#e1184c"/></linearGradient><path d="M864 204l288-288 288 288-288 288-288-288z" fill="url(#o)"/><linearGradient id="p" gradientUnits="userSpaceOnUse" x1="863.413" y1="1161" x2="1439.78" y2="1161" gradientTransform="matrix(1 0 0 -1 0 933)"><stop offset="0" stop-color="#ff1b51"/><stop offset="1" stop-color="#e1184c"/></linearGradient><path d="M1152-372v288l288-288h-288z" fill="url(#p)"/><linearGradient id="q" gradientUnits="userSpaceOnUse" x1="285.196" y1="441" x2="860.029" y2="441" gradientTransform="matrix(1 0 0 -1 0 933)"><stop offset="0" stop-color="#ff1b51"/><stop offset="1" stop-color="#e1184c"/></linearGradient><path d="M288 492l288-288 288 288-288 288-288-288z" fill="url(#q)"/><linearGradient id="r" gradientUnits="userSpaceOnUse" x1="576" y1="585" x2="1152" y2="585" gradientTransform="matrix(1 0 0 -1 0 933)"><stop offset="0" stop-color="#ff1b51"/><stop offset="1" stop-color="#e1184c"/></linearGradient><path d="M864 204H576l288 288h288L864 204z" fill="url(#r)"/><linearGradient id="s" gradientUnits="userSpaceOnUse" x1="0" y1="585" x2="576" y2="585" gradientTransform="matrix(1 0 0 -1 0 933)"><stop offset="0" stop-color="#e1184c"/><stop offset="1" stop-color="#ff1b51"/></linearGradient><path d="M288 492H0l288-288h288L288 492z" fill="url(#s)"/><linearGradient id="t" gradientUnits="userSpaceOnUse" x1="0" y1="297" x2="576" y2="297" gradientTransform="matrix(1 0 0 -1 0 933)"><stop offset="0" stop-color="#ff1b51"/><stop offset="1" stop-color="#e1184c"/></linearGradient><path d="M288 492H0l288 288h288L288 492z" fill="url(#t)"/></g></svg>